<mxfile host="65bd71144e">
    <diagram id="w1g4MPtFDhZBwdmwwcgC" name="Page-1">
        <mxGraphModel dx="743" dy="490" grid="1" gridSize="10" guides="1" tooltips="1" connect="1" arrows="1" fold="1" page="1" pageScale="1" pageWidth="850" pageHeight="1100" math="0" shadow="0">
            <root>
                <mxCell id="0"/>
                <mxCell id="1" parent="0"/>
                <mxCell id="2" value="App" style="rounded=0;whiteSpace=wrap;html=1;horizontal=1;verticalAlign=top;" vertex="1" parent="1">
                    <mxGeometry x="120" y="80" width="600" height="620" as="geometry"/>
                </mxCell>
                <mxCell id="3" value="Header" style="rounded=0;whiteSpace=wrap;html=1;" vertex="1" parent="1">
                    <mxGeometry x="150" y="120" width="550" height="60" as="geometry"/>
                </mxCell>
                <mxCell id="4" value="TicketControl" style="rounded=0;whiteSpace=wrap;html=1;verticalAlign=top;" vertex="1" parent="1">
                    <mxGeometry x="150" y="200" width="550" height="400" as="geometry"/>
                </mxCell>
                <mxCell id="5" value="TicketList" style="rounded=0;whiteSpace=wrap;html=1;verticalAlign=top;" vertex="1" parent="1">
                    <mxGeometry x="170" y="230" width="250" height="250" as="geometry"/>
                </mxCell>
                <mxCell id="6" value="NewTicketForm" style="rounded=0;whiteSpace=wrap;html=1;verticalAlign=top;" vertex="1" parent="1">
                    <mxGeometry x="440" y="230" width="240" height="350" as="geometry"/>
                </mxCell>
                <mxCell id="7" value="Submit" style="rounded=0;whiteSpace=wrap;html=1;labelBackgroundColor=#18141D;" vertex="1" parent="1">
                    <mxGeometry x="460" y="490" width="200" height="70" as="geometry"/>
                </mxCell>
                <mxCell id="8" value="Add Ticket" style="rounded=0;whiteSpace=wrap;html=1;labelBackgroundColor=#18141D;" vertex="1" parent="1">
                    <mxGeometry x="170" y="490" width="250" height="70" as="geometry"/>
                </mxCell>
                <mxCell id="9" value="Ticket" style="rounded=0;whiteSpace=wrap;html=1;labelBackgroundColor=#18141D;" vertex="1" parent="1">
                    <mxGeometry x="195" y="270" width="200" height="40" as="geometry"/>
                </mxCell>
                <mxCell id="10" value="Ticket" style="rounded=0;whiteSpace=wrap;html=1;labelBackgroundColor=#18141D;" vertex="1" parent="1">
                    <mxGeometry x="195" y="320" width="200" height="40" as="geometry"/>
                </mxCell>
                <mxCell id="11" value="Ticket" style="rounded=0;whiteSpace=wrap;html=1;labelBackgroundColor=#18141D;" vertex="1" parent="1">
                    <mxGeometry x="195" y="370" width="200" height="40" as="geometry"/>
                </mxCell>
                <mxCell id="12" value="Ticket" style="rounded=0;whiteSpace=wrap;html=1;labelBackgroundColor=#18141D;" vertex="1" parent="1">
                    <mxGeometry x="195" y="420" width="200" height="40" as="geometry"/>
                </mxCell>
            </root>
        </mxGraphModel>
    </diagram>
</mxfile>